<?xml version="1.0" encoding="UTF-8"?>
<svg version="1.1" xmlns="http://www.w3.org/2000/svg" width="5115" height="3346">
<path d="M0 0 C0.91432423 0.00026688 1.82864845 0.00053375 2.77067947 0.00080872 C31.78611665 0.01142079 60.72421723 0.2890133 89.6875 2.1875 C91.16869324 2.28224609 91.16869324 2.28224609 92.67980957 2.37890625 C195.96339604 9.01116331 298.68471597 25.39380728 593.6875 123.1875 C595.4504541 123.9619043 595.4504541 123.9619043 597.24902344 124.75195312 C613.83617342 132.05793356 630.22903233 139.72385861 646.52539062 147.65722656 C649.54578258 149.11891717 652.57477825 150.56025621 655.609375 151.9921875 C677.38359137 162.27080312 698.62038021 173.53644151 719.6875 185.1875 C720.67186035 185.72987305 721.6562207 186.27224609 722.67041016 186.83105469 C738.56137381 195.59726192 754.19343056 204.73868859 769.6875 214.1875 C770.79367676 214.86135742 771.89985352 215.53521484 773.03955078 216.22949219 C786.37638961 224.36521273 799.65529834 232.57118879 812.6875 241.1875 C813.76483398 241.89890137 814.84216797 242.61030273 815.95214844 243.34326172 C832.68619243 254.40311015 849.31312139 265.59923553 865.6875 277.1875 C866.47479492 277.74453613 867.26208984 278.30157227 868.07324219 278.87548828 C880.4957295 287.69392063 892.60736027 296.90796386 904.6875 306.1875 C905.92949271 307.13827534 907.17165751 308.08882596 908.4140625 309.0390625 C922.82408137 320.07316605 937.01780607 331.33877942 950.84521484 343.09716797 C954.3199136 346.04730597 957.83207795 348.94418229 961.375 351.8125 C965.82653808 355.43584495 970.11132455 359.20713872 974.35546875 363.0703125 C976.44573889 364.96801169 978.55736115 366.83483415 980.6875 368.6875 C984.54277125 372.04731471 988.34529851 375.46333017 992.140625 378.890625 C993.7511464 380.34305841 995.36527857 381.79150676 996.984375 383.234375 C999.56515479 385.53802408 1002.12920951 387.85889029 1004.6875 390.1875 C1005.45416992 390.88431885 1005.45416992 390.88431885 1006.23632812 391.59521484 C1016.17391831 400.66751899 1025.72777045 410.12139562 1035.25 419.625 C1035.86236511 420.23477692 1036.47473022 420.84455383 1037.10565186 421.47280884 C1052.62579128 436.94120579 1052.62579128 436.94120579 1055.6875 441.1875 C1055.6875 441.8475 1055.6875 442.5075 1055.6875 443.1875 C1052.00946875 441.80210546 1048.66003379 440.14016032 1045.2421875 438.203125 C1044.17846924 437.60443604 1043.11475098 437.00574707 1042.01879883 436.38891602 C1040.87822021 435.74494873 1039.7376416 435.10098145 1038.5625 434.4375 C1024.76665824 426.69676874 1010.78296649 419.36990331 996.6875 412.1875 C995.58317627 411.62289062 995.58317627 411.62289062 994.45654297 411.046875 C990.69603605 409.1280742 986.9190677 407.24571655 983.12841797 405.38720703 C981.28427933 404.48081603 979.44257483 403.56947021 977.60205078 402.65576172 C909.26621643 368.7712562 837.34675248 342.800661 763.6875 323.1875 C762.96900879 322.99585266 762.25051758 322.80420532 761.51025391 322.60675049 C695.2142192 304.97165847 627.30047918 293.9745428 559 287.9375 C558.13839264 287.8602771 557.27678528 287.7830542 556.3890686 287.70349121 C549.82671513 287.12391891 543.2599115 286.63774906 536.6875 286.1875 C535.44096649 286.10029694 534.19443298 286.01309387 532.91012573 285.92324829 C506.26907736 284.09433408 479.66526445 283.82436975 452.96879196 283.86944199 C449.57498884 283.87508313 446.18119071 283.87790313 442.78738403 283.88052368 C411.32641535 283.9158403 379.98934339 284.17538533 348.628479 286.93103027 C345.49052149 287.20467762 342.35163209 287.46500622 339.21240234 287.72363281 C275.83412538 292.98961523 212.94171737 302.19300512 150.6875 315.1875 C149.77883179 315.37701233 148.87016357 315.56652466 147.93395996 315.76177979 C47.31640338 336.82497494 -51.52052369 367.40340742 -209.3125 432.1875 C-210.47604004 432.70054687 -211.63958008 433.21359375 -212.83837891 433.7421875 C-232.81752286 442.56450343 -252.60217749 451.78235752 -272.3125 461.1875 C-273.01719421 461.52352234 -273.72188843 461.85954468 -274.44793701 462.20574951 C-305.87689785 477.20287396 -337.13863589 492.70629908 -367.56347656 509.66064453 C-370.73103851 511.41996357 -373.90800417 513.16186485 -377.0859375 514.90234375 C-400.06482058 527.49771824 -422.85885436 540.35671378 -445.21484375 554.03173828 C-452.39542134 558.42387902 -459.61259768 562.74453003 -466.875 567 C-475.15651506 571.86354472 -483.312612 576.89506731 -491.40673828 582.0637207 C-494.47593591 584.02189036 -497.55146939 585.96893215 -500.63769531 587.90014648 C-512.69468412 595.45066872 -524.55638886 603.27029323 -536.375 611.1875 C-538.15935609 612.3804314 -539.94386106 613.57314016 -541.72851562 614.765625 C-545.23351387 617.10790806 -548.73745394 619.45176196 -552.24072266 621.79663086 C-555.56534404 624.02100268 -558.89305266 626.2406171 -562.22412109 628.45532227 C-570.47200251 633.93916423 -578.69238375 639.45264577 -586.8125 645.125 C-588.25677368 646.13167725 -588.25677368 646.13167725 -589.73022461 647.15869141 C-597.99740533 652.93621855 -606.17871726 658.82739958 -614.33691406 664.75732422 C-616.73781991 666.49539966 -619.15170375 668.21458886 -621.56835938 669.93066406 C-638.08328847 681.65990813 -654.23838344 693.86389647 -670.3125 706.1875 C-671.25150146 706.90631348 -671.25150146 706.90631348 -672.20947266 707.63964844 C-675.34285531 710.03848847 -678.47088508 712.44412902 -681.59277344 714.85791016 C-682.84288834 715.82442432 -684.09362177 716.79013864 -685.34472656 717.75537109 C-694.16657039 724.56511213 -702.92147896 731.44210566 -711.54736328 738.4987793 C-715.82285246 741.99268729 -720.14303789 745.42092184 -724.5 748.8125 C-730.20134849 753.25779657 -735.73279801 757.87670859 -741.23046875 762.5703125 C-744.05933013 764.98246524 -746.92825122 767.34169998 -749.8125 769.6875 C-759.60875665 777.66910998 -769.18554789 785.91425487 -778.76953125 794.1484375 C-781.13628525 796.18119224 -783.50897184 798.20667916 -785.88671875 800.2265625 C-792.59571808 805.93404021 -799.17357542 811.75040892 -805.640625 817.73046875 C-808.49763939 820.35775245 -811.40549502 822.91639691 -814.3359375 825.4609375 C-821.94277685 832.10564697 -829.36087129 838.96450697 -836.79785156 845.79785156 C-838.25624405 847.13588671 -839.71790193 848.47036008 -841.1796875 849.8046875 C-852.55489341 860.19342569 -863.93393893 870.58845048 -874.6875 881.625 C-876.68731742 883.57720272 -878.692141 885.38442776 -880.81420898 887.19360352 C-886.07454063 891.78222588 -890.98240319 896.712728 -895.91015625 901.65234375 C-896.91313903 902.65465081 -897.91627003 903.65680956 -898.91954041 904.65882874 C-901.00959138 906.74741534 -903.09784888 908.83777388 -905.18481445 910.92944336 C-907.8394787 913.5898041 -910.49860884 916.24564842 -913.15911198 918.90016842 C-915.22774949 920.96516606 -917.29396699 923.03257204 -919.35949516 925.1006794 C-920.33822005 926.08006411 -921.31766806 927.05872681 -922.29789925 928.03660393 C-927.31622794 933.0455187 -932.23355602 938.08083685 -936.82872009 943.48353577 C-939.82898688 946.92902473 -943.15004126 950.06549038 -946.41796875 953.25390625 C-949.9519563 956.73655257 -953.24739735 960.35867203 -956.49121094 964.11230469 C-959.62727914 967.68557275 -962.91399815 971.11556759 -966.1875 974.5625 C-971.98608348 980.69588541 -977.70075472 986.88253913 -983.3125 993.1875 C-984.74998087 994.7708507 -986.18748155 996.35418342 -987.625 997.9375 C-991.78788813 1002.55808787 -995.83052348 1007.27467361 -999.86376953 1012.00805664 C-1002.85710262 1015.51364594 -1005.89529628 1018.96686974 -1009 1022.375 C-1012.85101005 1026.61458043 -1016.46093955 1031.01682112 -1020.0625 1035.46875 C-1022.24751569 1038.10897729 -1024.50421391 1040.6547972 -1026.8125 1043.1875 C-1030.65441939 1047.40763944 -1034.27365221 1051.76777184 -1037.86328125 1056.203125 C-1040.63060802 1059.57511487 -1043.46400415 1062.88412321 -1046.3125 1066.1875 C-1050.63082146 1071.1991113 -1054.8615718 1076.2696899 -1059.03125 1081.40625 C-1061.61093056 1084.55133999 -1064.23889674 1087.65222926 -1066.875 1090.75 C-1070.78904742 1095.35424624 -1074.61510561 1100.01517859 -1078.37109375 1104.75 C-1080.39304699 1107.28862942 -1082.44222269 1109.8028333 -1084.5 1112.3125 C-1098.7756018 1129.72123002 -1098.7756018 1129.72123002 -1112.78515625 1147.34375 C-1113.69008244 1148.500017 -1114.59503106 1149.65626646 -1115.5 1150.8125 C-1115.96108154 1151.40192383 -1116.42216309 1151.99134766 -1116.8972168 1152.59863281 C-1120.45723223 1157.13475211 -1124.0947424 1161.60299872 -1127.75 1166.0625 C-1132.62091832 1172.01480535 -1137.28958858 1178.0880713 -1141.86962891 1184.26611328 C-1145.19417703 1188.73698216 -1148.61810597 1193.10857741 -1152.125 1197.4375 C-1157.45379827 1204.02493811 -1162.54160453 1210.77646288 -1167.60253906 1217.57104492 C-1171.79164958 1223.18622426 -1176.0522151 1228.73723499 -1180.375 1234.25 C-1185.68378398 1241.02881721 -1190.83151766 1247.91015175 -1195.91333008 1254.86035156 C-1200.38682662 1260.96641545 -1204.9583427 1266.99201763 -1209.5625 1273 C-1214.34253363 1279.24398956 -1219.05544795 1285.5159916 -1223.58691406 1291.94262695 C-1227.09257707 1296.90947019 -1230.69699604 1301.80018652 -1234.3125 1306.6875 C-1238.77984349 1312.7313422 -1243.21151706 1318.7959096 -1247.56347656 1324.92333984 C-1250.3284195 1328.81552874 -1253.11985983 1332.68747965 -1255.92333984 1336.55200195 C-1262.90764269 1346.18376545 -1269.75228839 1355.9079557 -1276.55517578 1365.66845703 C-1278.85252877 1368.96160626 -1281.15713316 1372.24964471 -1283.46191406 1375.53759766 C-1285.80676524 1378.88368835 -1288.14856003 1382.23191058 -1290.48974609 1385.58056641 C-1291.71879048 1387.33836657 -1292.94829275 1389.09584666 -1294.17822266 1390.85302734 C-1303.92732775 1404.78782157 -1313.54265042 1418.81022591 -1323.06347656 1432.90168762 C-1325.61615163 1436.67981778 -1328.17164201 1440.45601328 -1330.73046875 1444.22998047 C-1344.32655717 1464.28341112 -1357.86069119 1484.34494749 -1370.80615234 1504.82617188 C-1372.92488545 1508.1474663 -1375.10973862 1511.42155742 -1377.3125 1514.6875 C-1384.5180563 1525.38610127 -1391.38305925 1536.30914923 -1398.3125 1547.1875 C-1399.55207116 1549.13151818 -1400.79165403 1551.07552889 -1402.03125 1553.01953125 C-1405.46372799 1558.40543289 -1408.88988985 1563.79532301 -1412.3125 1569.1875 C-1413.0852124 1570.40445557 -1413.0852124 1570.40445557 -1413.87353516 1571.64599609 C-1421.77839305 1584.1034431 -1429.56865003 1596.62944241 -1437.3125 1609.1875 C-1437.92609375 1610.18136719 -1438.5396875 1611.17523437 -1439.171875 1612.19921875 C-1461.36141024 1648.14446182 -1483.043503 1684.37285726 -1504.35742188 1720.84326172 C-1506.21023516 1724.01257195 -1508.06575555 1727.18028152 -1509.921875 1730.34765625 C-1521.90299951 1750.81295766 -1533.67325979 1771.39635404 -1545.23217773 1792.10302734 C-1548.54943216 1798.04543694 -1551.88903856 1803.97425844 -1555.2512207 1809.89135742 C-1560.76768052 1819.60301401 -1566.15011625 1829.3769826 -1571.43994141 1839.21386719 C-1575.11597848 1846.03180687 -1578.90431053 1852.77659163 -1582.75 1859.5 C-1588.14168019 1868.94746261 -1593.1899846 1878.54780808 -1598.15869141 1888.22338867 C-1601.71698237 1895.14338265 -1605.36188994 1902.00195944 -1609.125 1908.8125 C-1614.96366469 1919.39986574 -1620.49220156 1930.14055707 -1625.99926758 1940.90283203 C-1629.71054373 1948.15296726 -1633.4562977 1955.38263426 -1637.2578125 1962.5859375 C-1642.08503825 1971.73566844 -1646.84572333 1980.9178762 -1651.5625 1990.125 C-1651.99004578 1990.959245 -1652.41759155 1991.79348999 -1652.85809326 1992.65301514 C-1661.31606187 2009.17137684 -1669.64938411 2025.75195094 -1677.9540863 2042.34773636 C-1678.92204854 2044.28162951 -1679.89069632 2046.21517792 -1680.85949707 2048.14865112 C-1688.43100133 2063.26347057 -1695.87193479 2078.43304536 -1703.1272583 2093.70263672 C-1704.87523959 2097.36728548 -1706.64941077 2101.01892322 -1708.4296875 2104.66796875 C-1708.74128311 2105.30704666 -1709.05287872 2105.94612457 -1709.37391663 2106.60456848 C-1709.99431428 2107.87684508 -1710.61478214 2109.14908745 -1711.23532104 2110.42129517 C-1717.05150219 2122.35508257 -1722.75347687 2134.33254047 -1728.3125 2146.38867188 C-1732.35150501 2155.14314118 -1736.46343976 2163.86089373 -1740.59545898 2172.57174683 C-1748.68116544 2189.62552851 -1756.55873209 2206.7652846 -1764.31311035 2223.97192383 C-1765.34873089 2226.26782131 -1766.38645928 2228.56275553 -1767.42480469 2230.85742188 C-1785.18277124 2270.10165413 -1802.45415873 2309.54862328 -1819.3125 2349.1875 C-1819.89834869 2350.56479279 -1819.89834869 2350.56479279 -1820.49603271 2351.96990967 C-1822.923845 2357.67970717 -1825.34689558 2363.39150181 -1827.76516724 2369.10534668 C-1828.51479421 2370.87635137 -1829.264965 2372.64712604 -1830.01583862 2374.41760254 C-1843.73907723 2406.79323325 -1856.88585587 2439.41157592 -1869.9375 2472.0625 C-1870.27930172 2472.91719753 -1870.62110344 2473.77189507 -1870.97326279 2474.65249252 C-1908.99465383 2569.73281778 -1944.64923361 2665.76052022 -1977.45730591 2762.76721191 C-1979.57569305 2769.02647542 -1981.71242493 2775.2791681 -1983.86328125 2781.52734375 C-2009.58786622 2856.29155485 -2033.09681959 2931.88596397 -2108.625 3208.875 C-2108.88597473 3209.93993683 -2109.14694946 3211.00487366 -2109.41583252 3212.1020813 C-2115.58840511 3237.35063182 -2120.8302059 3262.769591 -2126.3125 3288.1875 C-2328.6025 3288.1875 -2530.8925 3288.1875 -2739.3125 3288.1875 C-2758.89697266 3240.77246094 -2758.89697266 3240.77246094 -2765.87304688 3223.875 C-2772.85306352 3206.96914892 -2779.84546242 3190.06851122 -2786.8550415 3173.17489624 C-2792.52130884 3159.51810861 -2798.17053945 3145.85434591 -2803.8125 3132.1875 C-2809.84347552 3117.57888951 -2815.88246109 3102.97365424 -2821.9375 3088.375 C-2822.28524475 3087.53657562 -2822.6329895 3086.69815125 -2822.99127197 3085.83432007 C-2825.43121816 3079.95185453 -2827.87178278 3074.06964566 -2830.3125 3068.1875 C-2833.10460224 3061.45851397 -2835.89641234 3054.72940693 -2838.6875 3048 C-2839.03508362 3047.16197845 -2839.38266724 3046.32395691 -2839.74078369 3045.46054077 C-2845.84823244 3030.73383105 -2851.93638656 3015.99919035 -2858.0199585 3001.26260376 C-2863.60561317 2987.73263364 -2869.20262903 2974.20744676 -2874.8125 2960.6875 C-2880.82661571 2946.19331203 -2886.82452853 2931.69250807 -2892.8125 2917.1875 C-2898.84347552 2902.57888951 -2904.88246109 2887.97365424 -2910.9375 2873.375 C-2911.28524475 2872.53657562 -2911.6329895 2871.69815125 -2911.99127197 2870.83432007 C-2914.43121816 2864.95185453 -2916.87178278 2859.06964566 -2919.3125 2853.1875 C-2922.10460224 2846.45851397 -2924.89641234 2839.72940693 -2927.6875 2833 C-2928.03508362 2832.16197845 -2928.38266724 2831.32395691 -2928.74078369 2830.46054077 C-2934.84823244 2815.73383105 -2940.93638656 2800.99919035 -2947.0199585 2786.26260376 C-2952.60561317 2772.73263364 -2958.20262903 2759.20744676 -2963.8125 2745.6875 C-2969.82661571 2731.19331203 -2975.82452853 2716.69250807 -2981.8125 2702.1875 C-2987.84347552 2687.57888951 -2993.88246109 2672.97365424 -2999.9375 2658.375 C-3000.28524475 2657.53657562 -3000.6329895 2656.69815125 -3000.99127197 2655.83432007 C-3003.43121816 2649.95185453 -3005.87178278 2644.06964566 -3008.3125 2638.1875 C-3011.10460224 2631.45851397 -3013.89641234 2624.72940693 -3016.6875 2618 C-3017.03508362 2617.16197845 -3017.38266724 2616.32395691 -3017.74078369 2615.46054077 C-3023.84823244 2600.73383105 -3029.93638656 2585.99919035 -3036.0199585 2571.26260376 C-3041.60561317 2557.73263364 -3047.20262903 2544.20744676 -3052.8125 2530.6875 C-3058.82661571 2516.19331203 -3064.82452853 2501.69250807 -3070.8125 2487.1875 C-3076.84347552 2472.57888951 -3082.88246109 2457.97365424 -3088.9375 2443.375 C-3089.28524475 2442.53657562 -3089.6329895 2441.69815125 -3089.99127197 2440.83432007 C-3092.43121816 2434.95185453 -3094.87178278 2429.06964566 -3097.3125 2423.1875 C-3100.10460224 2416.45851397 -3102.89641234 2409.72940693 -3105.6875 2403 C-3106.03508362 2402.16197845 -3106.38266724 2401.32395691 -3106.74078369 2400.46054077 C-3112.84823244 2385.73383105 -3118.93638656 2370.99919035 -3125.0199585 2356.26260376 C-3130.60561317 2342.73263364 -3136.20262903 2329.20744676 -3141.8125 2315.6875 C-3147.82661571 2301.19331203 -3153.82452853 2286.69250807 -3159.8125 2272.1875 C-3165.84347552 2257.57888951 -3171.88246109 2242.97365424 -3177.9375 2228.375 C-3178.28524475 2227.53657562 -3178.6329895 2226.69815125 -3178.99127197 2225.83432007 C-3181.43121816 2219.95185453 -3183.87178278 2214.06964566 -3186.3125 2208.1875 C-3189.10460224 2201.45851397 -3191.89641234 2194.72940693 -3194.6875 2188 C-3195.03508362 2187.16197845 -3195.38266724 2186.32395691 -3195.74078369 2185.46054077 C-3201.84823244 2170.73383105 -3207.93638656 2155.99919035 -3214.0199585 2141.26260376 C-3219.60561317 2127.73263364 -3225.20262903 2114.20744676 -3230.8125 2100.6875 C-3236.82661571 2086.19331203 -3242.82452853 2071.69250807 -3248.8125 2057.1875 C-3254.84347552 2042.57888951 -3260.88246109 2027.97365424 -3266.9375 2013.375 C-3267.28524475 2012.53657562 -3267.6329895 2011.69815125 -3267.99127197 2010.83432007 C-3270.43121816 2004.95185453 -3272.87178278 1999.06964566 -3275.3125 1993.1875 C-3278.10460224 1986.45851397 -3280.89641234 1979.72940693 -3283.6875 1973 C-3284.03508362 1972.16197845 -3284.38266724 1971.32395691 -3284.74078369 1970.46054077 C-3290.84823244 1955.73383105 -3296.93638656 1940.99919035 -3303.0199585 1926.26260376 C-3308.60561317 1912.73263364 -3314.20262903 1899.20744676 -3319.8125 1885.6875 C-3326.23104909 1870.21861622 -3332.62994107 1854.74169388 -3339.02050781 1839.26123047 C-3344.6059821 1825.73171928 -3350.20281799 1812.20699136 -3355.8125 1798.6875 C-3361.82661571 1784.19331203 -3367.82452853 1769.69250807 -3373.8125 1755.1875 C-3379.84347552 1740.57888951 -3385.88246109 1725.97365424 -3391.9375 1711.375 C-3392.28524475 1710.53657562 -3392.6329895 1709.69815125 -3392.99127197 1708.83432007 C-3395.43121816 1702.95185453 -3397.87178278 1697.06964566 -3400.3125 1691.1875 C-3403.10460224 1684.45851397 -3405.89641234 1677.72940693 -3408.6875 1671 C-3409.03508362 1670.16197845 -3409.38266724 1669.32395691 -3409.74078369 1668.46054077 C-3415.84823244 1653.73383105 -3421.93638656 1638.99919035 -3428.0199585 1624.26260376 C-3433.60561317 1610.73263364 -3439.20262903 1597.20744676 -3444.8125 1583.6875 C-3450.82661571 1569.19331203 -3456.82452853 1554.69250807 -3462.8125 1540.1875 C-3468.84347552 1525.57888951 -3474.88246109 1510.97365424 -3480.9375 1496.375 C-3481.28524475 1495.53657562 -3481.6329895 1494.69815125 -3481.99127197 1493.83432007 C-3484.43121816 1487.95185453 -3486.87178278 1482.06964566 -3489.3125 1476.1875 C-3492.10460224 1469.45851397 -3494.89641234 1462.72940693 -3497.6875 1456 C-3498.03508362 1455.16197845 -3498.38266724 1454.32395691 -3498.74078369 1453.46054077 C-3504.84823244 1438.73383105 -3510.93638656 1423.99919035 -3517.0199585 1409.26260376 C-3522.60561317 1395.73263364 -3528.20262903 1382.20744676 -3533.8125 1368.6875 C-3539.82661571 1354.19331203 -3545.82452853 1339.69250807 -3551.8125 1325.1875 C-3557.84347552 1310.57888951 -3563.88246109 1295.97365424 -3569.9375 1281.375 C-3570.28524475 1280.53657562 -3570.6329895 1279.69815125 -3570.99127197 1278.83432007 C-3573.43121816 1272.95185453 -3575.87178278 1267.06964566 -3578.3125 1261.1875 C-3581.10460224 1254.45851397 -3583.89641234 1247.72940693 -3586.6875 1241 C-3587.03508362 1240.16197845 -3587.38266724 1239.32395691 -3587.74078369 1238.46054077 C-3593.84823244 1223.73383105 -3599.93638656 1208.99919035 -3606.0199585 1194.26260376 C-3611.60561317 1180.73263364 -3617.20262903 1167.20744676 -3622.8125 1153.6875 C-3628.82661571 1139.19331203 -3634.82452853 1124.69250807 -3640.8125 1110.1875 C-3646.84347552 1095.57888951 -3652.88246109 1080.97365424 -3658.9375 1066.375 C-3659.28524475 1065.53657562 -3659.6329895 1064.69815125 -3659.99127197 1063.83432007 C-3662.43121816 1057.95185453 -3664.87178278 1052.06964566 -3667.3125 1046.1875 C-3670.10460224 1039.45851397 -3672.89641234 1032.72940693 -3675.6875 1026 C-3676.03508362 1025.16197845 -3676.38266724 1024.32395691 -3676.74078369 1023.46054077 C-3682.84823244 1008.73383105 -3688.93638656 993.99919035 -3695.0199585 979.26260376 C-3700.60561317 965.73263364 -3706.20262903 952.20744676 -3711.8125 938.6875 C-3718.23104909 923.21861622 -3724.62994107 907.74169388 -3731.02050781 892.26123047 C-3736.6059821 878.73171928 -3742.20281799 865.20699136 -3747.8125 851.6875 C-3753.82661571 837.19331203 -3759.82452853 822.69250807 -3765.8125 808.1875 C-3771.84347552 793.57888951 -3777.88246109 778.97365424 -3783.9375 764.375 C-3784.28524475 763.53657562 -3784.6329895 762.69815125 -3784.99127197 761.83432007 C-3787.43121816 755.95185453 -3789.87178278 750.06964566 -3792.3125 744.1875 C-3795.10460224 737.45851397 -3797.89641234 730.72940693 -3800.6875 724 C-3801.03508362 723.16197845 -3801.38266724 722.32395691 -3801.74078369 721.46054077 C-3807.84823244 706.73383105 -3813.93638656 691.99919035 -3820.0199585 677.26260376 C-3825.60561317 663.73263364 -3831.20262903 650.20744676 -3836.8125 636.6875 C-3842.82661571 622.19331203 -3848.82452853 607.69250807 -3854.8125 593.1875 C-3860.84347552 578.57888951 -3866.88246109 563.97365424 -3872.9375 549.375 C-3873.28524475 548.53657562 -3873.6329895 547.69815125 -3873.99127197 546.83432007 C-3876.43121816 540.95185453 -3878.87178278 535.06964566 -3881.3125 529.1875 C-3884.10460224 522.45851397 -3886.89641234 515.72940693 -3889.6875 509 C-3890.03508362 508.16197845 -3890.38266724 507.32395691 -3890.74078369 506.46054077 C-3896.84823244 491.73383105 -3902.93638656 476.99919035 -3909.0199585 462.26260376 C-3914.60561317 448.73263364 -3920.20262903 435.20744676 -3925.8125 421.6875 C-3931.82661571 407.19331203 -3937.82452853 392.69250807 -3943.8125 378.1875 C-3949.84347552 363.57888951 -3955.88246109 348.97365424 -3961.9375 334.375 C-3962.45911713 333.11736343 -3962.45911713 333.11736343 -3962.99127197 331.83432007 C-3965.43121816 325.95185453 -3967.87178278 320.06964566 -3970.3125 314.1875 C-3973.10460224 307.45851397 -3975.89641234 300.72940693 -3978.6875 294 C-3979.03508362 293.16197845 -3979.38266724 292.32395691 -3979.74078369 291.46054077 C-3985.84656056 276.7378624 -3991.93321729 262.0073243 -3998.0149231 247.27468872 C-4003.35218924 234.34579357 -4008.69990339 221.42130311 -4014.06082153 208.50219727 C-4019.52764983 195.32700155 -4024.99242712 182.15093196 -4030.43441772 168.9654541 C-4031.05687268 167.45795831 -4031.67993089 165.95071145 -4032.30361938 164.44372559 C-4033.15331377 162.39025653 -4034.00079938 160.33589054 -4034.84765625 158.28125 C-4035.325979 157.12302734 -4035.80430176 155.96480469 -4036.29711914 154.77148438 C-4037.3125 152.1875 -4037.3125 152.1875 -4037.3125 151.1875 C-3818.8525 151.1875 -3600.3925 151.1875 -3375.3125 151.1875 C-3357.11025406 197.83075523 -3357.11025406 197.83075523 -3349.79067993 216.83642578 C-3347.47449654 222.85007971 -3345.15513065 228.86250629 -3342.8359375 234.875 C-3342.37010757 236.082771 -3341.90427765 237.29054199 -3341.42433167 238.53491211 C-3336.83758879 250.42416574 -3332.23403026 262.30687143 -3327.625 274.1875 C-3327.04407593 275.68506836 -3327.04407593 275.68506836 -3326.45141602 277.21289062 C-3323.73910239 284.20468262 -3321.02592083 291.19613764 -3318.3125 298.1875 C-3315.20771016 306.1872583 -3312.10334169 314.18717979 -3309 322.1875 C-3308.61268707 323.18595947 -3308.22537415 324.18441895 -3307.82632446 325.21313477 C-3300.83395533 343.24146518 -3293.86991061 361.28067091 -3286.9105835 379.32177734 C-3280.49624496 395.94920213 -3274.07030627 412.57205382 -3267.625 429.1875 C-3267.04366806 430.68615601 -3267.04366806 430.68615601 -3266.45059204 432.21508789 C-3263.73855496 439.20614819 -3261.02563783 446.19686683 -3258.3125 453.1875 C-3255.20771016 461.1872583 -3252.10334169 469.18717979 -3249 477.1875 C-3248.61268707 478.18595947 -3248.22537415 479.18441895 -3247.82632446 480.21313477 C-3240.83395533 498.24146518 -3233.86991061 516.28067091 -3226.9105835 534.32177734 C-3220.49624496 550.94920213 -3214.07030627 567.57205382 -3207.625 584.1875 C-3207.23744537 585.186604 -3206.84989075 586.18570801 -3206.45059204 587.21508789 C-3203.73855496 594.20614819 -3201.02563783 601.19686683 -3198.3125 608.1875 C-3195.20771016 616.1872583 -3192.10334169 624.18717979 -3189 632.1875 C-3188.61268707 633.18595947 -3188.22537415 634.18441895 -3187.82632446 635.21313477 C-3180.83395533 653.24146518 -3173.86991061 671.28067091 -3166.9105835 689.32177734 C-3158.17936945 711.95507053 -3149.41588634 734.57572924 -3140.63916016 757.19140625 C-3136.29728627 768.38003736 -3131.95963732 779.57030746 -3127.62115479 790.76025391 C-3126.43105546 793.82976237 -3125.24092919 796.89926038 -3124.05078125 799.96875 C-3123.658302 800.98098633 -3123.26582275 801.99322266 -3122.8614502 803.03613281 C-3120.51750296 809.08098594 -3118.17263664 815.12548159 -3115.82699585 821.16967773 C-3106.4970643 845.2109748 -3097.19175283 869.26161162 -3087.9105835 893.32177734 C-3081.49624496 909.94920213 -3075.07030627 926.57205382 -3068.625 943.1875 C-3068.23744537 944.186604 -3067.84989075 945.18570801 -3067.45059204 946.21508789 C-3064.73855496 953.20614819 -3062.02563783 960.19686683 -3059.3125 967.1875 C-3056.20771016 975.1872583 -3053.10334169 983.18717979 -3050 991.1875 C-3049.61268707 992.18595947 -3049.22537415 993.18441895 -3048.82632446 994.21313477 C-3041.83395533 1012.24146518 -3034.86991061 1030.28067091 -3027.9105835 1048.32177734 C-3021.49624496 1064.94920213 -3015.07030627 1081.57205382 -3008.625 1098.1875 C-3008.23744537 1099.186604 -3007.84989075 1100.18570801 -3007.45059204 1101.21508789 C-3004.73855496 1108.20614819 -3002.02563783 1115.19686683 -2999.3125 1122.1875 C-2996.20771016 1130.1872583 -2993.10334169 1138.18717979 -2990 1146.1875 C-2989.61268707 1147.18595947 -2989.22537415 1148.18441895 -2988.82632446 1149.21313477 C-2981.83395533 1167.24146518 -2974.86991061 1185.28067091 -2967.9105835 1203.32177734 C-2961.49624496 1219.94920213 -2955.07030627 1236.57205382 -2948.625 1253.1875 C-2948.23744537 1254.186604 -2947.84989075 1255.18570801 -2947.45059204 1256.21508789 C-2944.73855496 1263.20614819 -2942.02563783 1270.19686683 -2939.3125 1277.1875 C-2936.20771016 1285.1872583 -2933.10334169 1293.18717979 -2930 1301.1875 C-2929.61268707 1302.18595947 -2929.22537415 1303.18441895 -2928.82632446 1304.21313477 C-2921.83395533 1322.24146518 -2914.86991061 1340.28067091 -2907.9105835 1358.32177734 C-2899.17936945 1380.95507053 -2890.41588634 1403.57572924 -2881.63916016 1426.19140625 C-2877.29728627 1437.38003736 -2872.95963732 1448.57030746 -2868.62115479 1459.76025391 C-2867.43105546 1462.82976237 -2866.24092919 1465.89926038 -2865.05078125 1468.96875 C-2864.658302 1469.98098633 -2864.26582275 1470.99322266 -2863.8614502 1472.03613281 C-2861.51750296 1478.08098594 -2859.17263664 1484.12548159 -2856.82699585 1490.16967773 C-2847.4970643 1514.2109748 -2838.19175283 1538.26161162 -2828.9105835 1562.32177734 C-2822.49624496 1578.94920213 -2816.07030627 1595.57205382 -2809.625 1612.1875 C-2809.23744537 1613.186604 -2808.84989075 1614.18570801 -2808.45059204 1615.21508789 C-2805.73855496 1622.20614819 -2803.02563783 1629.19686683 -2800.3125 1636.1875 C-2797.20771016 1644.1872583 -2794.10334169 1652.18717979 -2791 1660.1875 C-2790.61268707 1661.18595947 -2790.22537415 1662.18441895 -2789.82632446 1663.21313477 C-2782.83395533 1681.24146518 -2775.86991061 1699.28067091 -2768.9105835 1717.32177734 C-2762.49624496 1733.94920213 -2756.07030627 1750.57205382 -2749.625 1767.1875 C-2749.23744537 1768.186604 -2748.84989075 1769.18570801 -2748.45059204 1770.21508789 C-2745.73855496 1777.20614819 -2743.02563783 1784.19686683 -2740.3125 1791.1875 C-2737.20771016 1799.1872583 -2734.10334169 1807.18717979 -2731 1815.1875 C-2730.61268707 1816.18595947 -2730.22537415 1817.18441895 -2729.82632446 1818.21313477 C-2722.83395533 1836.24146518 -2715.86991061 1854.28067091 -2708.9105835 1872.32177734 C-2702.49624496 1888.94920213 -2696.07030627 1905.57205382 -2689.625 1922.1875 C-2689.23744537 1923.186604 -2688.84989075 1924.18570801 -2688.45059204 1925.21508789 C-2685.73855496 1932.20614819 -2683.02563783 1939.19686683 -2680.3125 1946.1875 C-2677.20771016 1954.1872583 -2674.10334169 1962.18717979 -2671 1970.1875 C-2670.61268707 1971.18595947 -2670.22537415 1972.18441895 -2669.82632446 1973.21313477 C-2662.83395533 1991.24146518 -2655.86991061 2009.28067091 -2648.9105835 2027.32177734 C-2640.17936945 2049.95507053 -2631.41588634 2072.57572924 -2622.63916016 2095.19140625 C-2618.29728627 2106.38003736 -2613.95963732 2117.57030746 -2609.62115479 2128.76025391 C-2608.43105546 2131.82976237 -2607.24092919 2134.89926038 -2606.05078125 2137.96875 C-2605.46206238 2139.48710449 -2605.46206238 2139.48710449 -2604.8614502 2141.03613281 C-2602.51755419 2147.08085383 -2600.17274039 2153.12521788 -2597.82714844 2159.16928101 C-2595.88444529 2164.17522973 -2593.94211824 2169.18132432 -2592 2174.1875 C-2591.61628235 2175.17659363 -2591.2325647 2176.16568726 -2590.83721924 2177.18475342 C-2586.06162049 2189.49659022 -2581.29645604 2201.81242219 -2576.54296875 2214.1328125 C-2576.2988368 2214.76553825 -2576.05470486 2215.39826401 -2575.80317497 2216.05016327 C-2573.18738752 2222.82981583 -2570.57277757 2229.60992093 -2567.9597168 2236.390625 C-2567.30403969 2238.09106964 -2567.30403969 2238.09106964 -2566.63511658 2239.8258667 C-2565.77817779 2242.04835383 -2564.9217715 2244.27104637 -2564.06593323 2246.49395752 C-2561.95714007 2251.96277803 -2559.82863477 2257.42272385 -2557.66503906 2262.87011719 C-2557.24412994 2263.93293915 -2556.82322083 2264.99576111 -2556.38955688 2266.09078979 C-2555.59223066 2268.100476 -2554.79067345 2270.10849048 -2553.98422241 2272.11453247 C-2553.63187531 2273.00341156 -2553.2795282 2273.89229065 -2552.91650391 2274.80810547 C-2552.60548737 2275.58491669 -2552.29447083 2276.36172791 -2551.97402954 2277.16207886 C-2551.3125 2279.1875 -2551.3125 2279.1875 -2551.3125 2282.1875 C-2550.6525 2282.1875 -2549.9925 2282.1875 -2549.3125 2282.1875 C-2548.95285156 2281.011875 -2548.59320312 2279.83625 -2548.22265625 2278.625 C-2545.87993972 2271.61456728 -2542.76476949 2264.92698471 -2539.75 2258.1875 C-2538.73960896 2255.91646859 -2537.73070763 2253.64477906 -2536.72189331 2251.37304688 C-2536.01282414 2249.77648632 -2535.30328201 2248.18013575 -2534.59329224 2246.58398438 C-2532.03790038 2240.83566089 -2529.50652266 2235.07718652 -2526.98828125 2229.3125 C-2516.65648483 2205.66779764 -2506.1190183 2182.12294511 -2495.42773438 2158.63867188 C-2494.34891461 2156.2675356 -2493.27176205 2153.89565062 -2492.1953125 2151.5234375 C-2483.12526815 2131.53734451 -2473.86068666 2111.6504465 -2464.45249939 2091.82139587 C-2462.08246258 2086.8226803 -2459.72919824 2081.81637023 -2457.38671875 2076.8046875 C-2448.09213603 2056.9307695 -2438.53327022 2037.19434373 -2428.88139343 2017.4916687 C-2426.41638664 2012.45591169 -2423.96725528 2007.41298028 -2421.5390625 2002.359375 C-2412.83912378 1984.26517297 -2403.91538319 1966.28474852 -2394.94255829 1948.32468033 C-2393.95218486 1946.34189987 -2392.9624983 1944.3587779 -2391.97296143 1942.37557983 C-2385.33476982 1929.07504906 -2378.64919516 1915.80693672 -2371.68115234 1902.67529297 C-2369.10705842 1897.81687002 -2366.59621583 1892.92687273 -2364.09375 1888.03125 C-2363.65872162 1887.18021698 -2363.22369324 1886.32918396 -2362.77548218 1885.45236206 C-2361.45366117 1882.8644958 -2360.13287761 1880.27610298 -2358.8125 1877.6875 C-2349.80475935 1860.02780617 -2340.63866142 1842.46034314 -2331.25 1825 C-2327.15266483 1817.37409793 -2323.06949613 1809.74125891 -2319.02734375 1802.0859375 C-2312.21849026 1789.19717171 -2305.36462317 1776.35960733 -2298.12451172 1763.70581055 C-2293.88464632 1756.27120986 -2289.83105567 1748.74314601 -2285.8125 1741.1875 C-2280.74422514 1731.66298359 -2275.5656592 1722.2122127 -2270.22436523 1712.83764648 C-2266.0483106 1705.50745283 -2261.95442609 1698.13433726 -2257.875 1690.75 C-2252.52306974 1681.07873912 -2247.03954076 1671.49582698 -2241.44165039 1661.96508789 C-2237.49724931 1655.24308064 -2233.63144496 1648.48149453 -2229.8125 1641.6875 C-2223.72320899 1630.86598101 -2217.48928736 1620.13357619 -2211.20751953 1609.42285156 C-2209.5632973 1606.6156842 -2207.92330295 1603.80610228 -2206.28564453 1600.99510193 C-2198.60452078 1587.81211172 -2190.84149097 1574.68659173 -2182.89263916 1561.66308594 C-2176.97490976 1551.96706356 -2171.15848774 1542.21411824 -2165.375 1532.4375 C-2159.54780784 1522.59166381 -2153.66606126 1512.79333983 -2147.53759766 1503.13134766 C-2145.03922417 1499.16720861 -2142.58684827 1495.17438052 -2140.125 1491.1875 C-2124.99061298 1466.71128727 -2109.64485793 1442.36928042 -2094.171875 1418.10595703 C-2092.27824628 1415.13373569 -2090.38903882 1412.1587339 -2088.5 1409.18359375 C-2080.70549731 1396.93077956 -2072.76178233 1384.79061795 -2064.68164062 1372.7253418 C-2060.59285683 1366.61856593 -2056.53536257 1360.49541204 -2052.5625 1354.3125 C-2042.49727473 1338.67000705 -2032.04280713 1323.28374291 -2021.625 1307.875 C-2021.14567017 1307.165784 -2020.66634033 1306.45656799 -2020.17248535 1305.7258606 C-2013.68823435 1296.13456109 -2007.1581561 1286.57598636 -2000.58914185 1277.04255676 C-1998.78023276 1274.4140756 -1996.97679311 1271.7818579 -1995.17327881 1269.14967346 C-1988.29384587 1259.11047185 -1981.30858036 1249.14561438 -1974.3125 1239.1875 C-1973.79010742 1238.44322754 -1973.26771484 1237.69895508 -1972.72949219 1236.93212891 C-1966.60641233 1228.21215441 -1960.41874037 1219.54241834 -1954.16552734 1210.9152832 C-1950.52684196 1205.88890841 -1946.93861365 1200.82979296 -1943.375 1195.75 C-1938.54463477 1188.87266655 -1933.59173743 1182.09279347 -1928.58959961 1175.33959961 C-1925.19715222 1170.75665664 -1921.83873855 1166.15242376 -1918.51757812 1161.51757812 C-1912.59973737 1153.2589351 -1906.5117041 1145.14733391 -1900.33129883 1137.08349609 C-1895.86418498 1131.2477825 -1891.46810312 1125.36599697 -1887.125 1119.4375 C-1880.64183802 1110.59298824 -1874.00519277 1101.87408969 -1867.3125 1093.1875 C-1866.41778636 1092.02357768 -1865.52324605 1090.85952209 -1864.62890625 1089.6953125 C-1862.98830797 1087.56016621 -1861.34615023 1085.42625151 -1859.703125 1083.29296875 C-1858.08649434 1081.19293382 -1856.47158886 1079.09169656 -1854.859375 1076.98828125 C-1849.19413715 1069.60092717 -1843.4656579 1062.265658 -1837.70361328 1054.95361328 C-1835.86197717 1052.61553051 -1834.02325022 1050.27516989 -1832.18481445 1047.93457031 C-1831.27081907 1046.77097825 -1830.35659422 1045.6075664 -1829.44213867 1044.44433594 C-1827.12204373 1041.49291422 -1824.80470213 1038.53939706 -1822.4921875 1035.58203125 C-1817.64218632 1029.38433958 -1812.74882954 1023.23127753 -1807.75 1017.15234375 C-1804.80290964 1013.56766172 -1801.86724039 1009.97387072 -1798.9375 1006.375 C-1798.10351685 1005.35067871 -1798.10351685 1005.35067871 -1797.25268555 1004.30566406 C-1793.70027048 999.93012213 -1790.20931526 995.51180839 -1786.75 991.0625 C-1782.53475071 985.64970177 -1778.14322045 980.41555148 -1773.65429688 975.22827148 C-1769.88235984 970.86834882 -1766.21784539 966.4313755 -1762.58203125 961.95703125 C-1758.68531614 957.20183157 -1754.69612557 952.52515538 -1750.71533203 947.84033203 C-1749.33772412 946.21721933 -1747.96318243 944.5915696 -1746.58984375 942.96484375 C-1740.37022607 935.59829855 -1734.10938682 928.26805962 -1727.82861328 920.95361328 C-1725.82114006 918.6151171 -1723.81545236 916.27509395 -1721.81005859 913.93481445 C-1720.81200785 912.77031344 -1719.81363558 911.60608792 -1718.81494141 910.44213867 C-1716.29602254 907.50586228 -1713.78209428 904.56556309 -1711.27734375 901.6171875 C-1705.56812819 894.90727409 -1699.75083392 888.32776863 -1693.76953125 881.859375 C-1691.14719739 879.00774327 -1688.59261681 876.10619929 -1686.0546875 873.1796875 C-1683.23665576 869.95727453 -1680.35698387 866.79055021 -1677.48828125 863.61328125 C-1675.63806437 861.55047212 -1673.81305191 859.4703763 -1672 857.375 C-1668.37033975 853.20636468 -1664.61292096 849.15988568 -1660.85620117 845.10620117 C-1657.815378 841.82283221 -1654.79852873 838.52099389 -1651.8125 835.1875 C-1646.37709931 829.12756494 -1640.849338 823.15462013 -1635.3125 817.1875 C-1634.72178711 816.55021973 -1634.13107422 815.91293945 -1633.52246094 815.25634766 C-1631.68334472 813.27347434 -1629.84202522 811.29267094 -1628 809.3125 C-1627.43772705 808.70639893 -1626.8754541 808.10029785 -1626.29614258 807.47583008 C-1623.52808294 804.5057758 -1620.72507884 801.59090029 -1617.83203125 798.7421875 C-1615.39821932 796.33028966 -1613.10986606 793.84714827 -1610.875 791.25 C-1606.60005992 786.29755826 -1601.94107657 781.76572069 -1597.2734375 777.1875 C-1596.60570313 776.5275 -1595.93796875 775.8675 -1595.25 775.1875 C-1594.66089844 774.61 -1594.07179688 774.0325 -1593.46484375 773.4375 C-1591.70038667 771.59298589 -1590.05251829 769.71835427 -1588.39819336 767.77758789 C-1582.91059999 761.47169866 -1576.91710259 755.64837296 -1571.00390625 749.74609375 C-1569.71013566 748.4516481 -1568.41651343 747.15705416 -1567.12303162 745.86231995 C-1564.42242761 743.16024849 -1561.72004107 740.45997619 -1559.01635742 737.76098633 C-1555.56905451 734.3193801 -1552.1262615 730.87330295 -1548.68480015 727.42585659 C-1546.01759788 724.75502289 -1543.34799632 722.08659756 -1540.67768669 719.41887093 C-1539.4080278 718.14987417 -1538.13909757 716.8801479 -1536.87094307 715.60964775 C-1525.17776242 703.89958322 -1525.17776242 703.89958322 -1518.87120056 698.52381897 C-1516.9238275 696.85427985 -1515.10769742 695.08126165 -1513.3125 693.25 C-1512.6525 692.58226562 -1511.9925 691.91453125 -1511.3125 691.2265625 C-1510.6525 690.55367187 -1509.9925 689.88078125 -1509.3125 689.1875 C-1504.7124344 684.49758937 -1500.04097197 680.00294168 -1495.0625 675.71484375 C-1493.04999029 673.95838996 -1491.16758105 672.10883395 -1489.3125 670.1875 C-1486.84538541 667.63227418 -1484.27521829 665.26302117 -1481.59375 662.9375 C-1477.21913127 659.13806262 -1473.0110115 655.17952733 -1468.8125 651.1875 C-1464.01435352 646.62532794 -1459.17205053 642.14672302 -1454.16992188 637.80859375 C-1451.50498632 635.48272991 -1448.91057691 633.08789714 -1446.3125 630.6875 C-1440.65497535 625.48218946 -1434.90781389 620.40302853 -1429.0625 615.41015625 C-1427.85412052 614.37765817 -1426.6457885 613.34510454 -1425.4375 612.3125 C-1424.5244812 611.53277832 -1424.5244812 611.53277832 -1423.59301758 610.73730469 C-1420.05587942 607.70831344 -1416.56840469 604.63585977 -1413.125 601.5 C-1408.98553214 597.74356731 -1404.69913734 594.21190738 -1400.35546875 590.6953125 C-1396.83159275 587.79116822 -1393.38104899 584.81102706 -1389.9375 581.8125 C-1380.78561874 573.84783337 -1371.59980319 565.93941047 -1362.08984375 558.40234375 C-1359.25258876 556.13972268 -1356.43792162 553.85123939 -1353.62573242 551.55761719 C-1346.15089747 545.46170398 -1338.61461312 539.45351626 -1331.01269531 533.51708984 C-1328.76145121 531.75656782 -1326.51638826 529.9882559 -1324.27124023 528.2199707 C-1321.92636621 526.37429118 -1319.57842646 524.53253774 -1317.22998047 522.69140625 C-1315.90286295 521.65052976 -1314.57640911 520.60880672 -1313.25048828 519.56640625 C-1304.15533487 512.42065632 -1294.97794649 505.41487963 -1285.64111328 498.58764648 C-1279.53445569 494.11396176 -1273.50850966 489.54193516 -1267.5 484.9375 C-1260.13662415 479.30193676 -1252.70035353 473.81045693 -1245.12158203 468.46972656 C-1241.58431965 465.96261428 -1238.07540096 463.41607207 -1234.5625 460.875 C-1233.42300903 460.05177246 -1233.42300903 460.05177246 -1232.26049805 459.21191406 C-1228.45975727 456.46566543 -1224.66166569 453.71583262 -1220.8671875 450.9609375 C-1210.58635236 443.50398378 -1200.21620317 436.18411739 -1189.79638672 428.92285156 C-1187.42339469 427.26497587 -1185.05630237 425.59908527 -1182.69140625 423.9296875 C-1172.37011732 416.65267503 -1161.95649499 409.51820817 -1151.5 402.4375 C-1150.53433609 401.78344681 -1150.53433609 401.78344681 -1149.54916382 401.11618042 C-1135.58108804 391.66030842 -1121.54786094 382.30470653 -1107.4375 373.0625 C-1106.82231506 372.6594162 -1106.20713013 372.2563324 -1105.57330322 371.84103394 C-1092.88019134 363.52801973 -1080.11632379 355.32906186 -1067.3125 347.1875 C-1066.47074219 346.6507666 -1065.62898438 346.1140332 -1064.76171875 345.56103516 C-1052.76743956 337.91443996 -1040.65124905 330.48018452 -1028.484375 323.11181641 C-1025.14228907 321.08423626 -1021.80508394 319.04874048 -1018.46875 317.01171875 C-1004.511838 308.49572922 -990.48658384 300.11281402 -976.32958984 291.93212891 C-973.21308038 290.13001071 -970.10051863 288.32120335 -966.98828125 286.51171875 C-944.67307817 273.55972664 -922.10829689 261.06966685 -899.38769531 248.84423828 C-896.24269512 247.14989315 -893.10174366 245.44819882 -889.9609375 243.74609375 C-870.62497494 233.29614864 -851.08458137 223.25437843 -831.49200439 213.29547119 C-829.49013711 212.27780346 -827.48890261 211.25890252 -825.48779297 210.23974609 C-811.36010006 203.05728842 -797.0998854 196.2227593 -782.69921875 189.60546875 C-777.67992348 187.29842824 -772.68649837 184.94250091 -767.70703125 182.55078125 C-743.7778423 171.08173214 -719.43020059 160.65682422 -694.99273682 150.32287598 C-691.89166309 149.00922914 -688.79412836 147.68744761 -685.69732666 146.36376953 C-651.69429651 131.83611339 -617.10788498 118.68601611 -582.3125 106.1875 C-581.48721802 105.89099548 -580.66193604 105.59449097 -579.81164551 105.28900146 C-489.5820047 72.92624276 -397.16332878 47.41099383 -70.72384644 1.2875061 C-68.9949648 1.21580396 -67.26623875 1.14031141 -65.53762817 1.06234741 C-43.69145334 0.08474399 -21.86365246 -0.0143315 0 0 Z " fill="#A258CA" transform="translate(4037.3125,-0.18749999999999997)"/>
<path d="M0 0 C1.53557096 3.95558076 0.42833865 7.3569846 -0.58984375 11.296875 C-0.96176789 12.80629097 -1.33358913 14.31573229 -1.70532227 15.82519531 C-2.00613205 17.02480896 -2.00613205 17.02480896 -2.3130188 18.24865723 C-16.91687134 76.74399854 -25.93441835 136.53543809 -31.1875 196.5625 C-31.26649536 197.44771332 -31.34549072 198.33292664 -31.42687988 199.2449646 C-34.32924444 232.19572319 -35.36381783 265.18274268 -35.25794983 298.24928665 C-35.24982505 300.93278245 -35.24490686 303.6162697 -35.24060059 306.29977417 C-35.19430102 331.39484697 -35.02670086 356.44740691 -33.18359375 381.48614502 C-32.98531399 384.20108804 -32.79696206 386.91662224 -32.609375 389.63232422 C-26.06460197 483.29682044 -10.18996376 576.17794535 67 800 C67.49532227 801.09070801 67.99064453 802.18141602 68.50097656 803.30517578 C80.0503202 828.68570288 92.30880098 853.69916847 106 878 C106.57331055 879.01771484 107.14662109 880.03542969 107.73730469 881.08398438 C125.46627578 912.42644267 144.86728167 942.8357466 166 972 C166.55107422 972.7621582 167.10214844 973.52431641 167.66992188 974.30957031 C174.60484334 983.87697869 181.6969352 993.27974364 189.140625 1002.45703125 C191.49601756 1005.36143108 193.79839672 1008.30286641 196.08764648 1011.25952148 C204.57614504 1022.20444935 213.73499545 1032.56154562 223.03515625 1042.8203125 C224.81826664 1044.7983952 226.57014769 1046.798558 228.3125 1048.8125 C238.7737822 1060.76713415 249.88508097 1072.04289028 261.12841797 1083.25878906 C263.76255982 1085.88753409 266.39126504 1088.52163178 269.01953125 1091.15625 C270.71582503 1092.85188349 272.4124287 1094.54720703 274.109375 1096.2421875 C274.88351746 1097.01835419 275.65765991 1097.79452087 276.45526123 1098.59420776 C280.6013874 1102.72270785 284.82773694 1106.69413041 289.26768494 1110.50579834 C291.84584367 1112.72957919 294.32114919 1115.05438512 296.8125 1117.375 C301.43780953 1121.64839971 306.20081901 1125.68883729 311.109375 1129.63671875 C313.74698824 1131.79314579 316.32243304 1134.00188904 318.89013672 1136.23999023 C325.90522568 1142.34586207 333.16354729 1148.04757431 340.5859375 1153.6484375 C343.55594619 1155.89141967 346.4956515 1158.16685234 349.4140625 1160.4765625 C359.21064878 1168.22497701 369.24946139 1175.43955931 379.62207031 1182.39550781 C381.97618228 1183.98392915 384.31451381 1185.5930258 386.6484375 1187.2109375 C467.69260748 1243.35312496 558.55844091 1284.88636664 689 1324 C689.81436523 1324.21767029 690.62873047 1324.43534058 691.46777344 1324.65960693 C789.61258336 1350.82878986 891.1825742 1363.52668484 1022.85241699 1366.97393799 C1024.75873722 1366.99707215 1026.66501749 1367.02344774 1028.57128906 1367.05029297 C1035.05036269 1367.13399392 1041.52140188 1367.10719608 1048 1367 C1049.83135498 1366.97317139 1049.83135498 1366.97317139 1051.69970703 1366.94580078 C1108.54112883 1366.05243931 1164.9437434 1360.31980958 1221 1351 C1222.24082336 1350.79437439 1222.24082336 1350.79437439 1223.50671387 1350.58459473 C1311.00963728 1336.01471733 1397.95593305 1310.48449511 1507 1264 C1508.18400391 1263.47293457 1509.36800781 1262.94586914 1510.58789062 1262.40283203 C1541.39613823 1248.60950852 1572.16576187 1233.7461838 1601.25439453 1216.6015625 C1604.42123214 1214.75428749 1607.61275019 1212.95263242 1610.80859375 1211.15625 C1625.50481392 1202.88378839 1639.91481533 1194.28483584 1654 1185 C1655.05752472 1184.30369476 1655.05752472 1184.30369476 1656.13641357 1183.59332275 C1662.01576675 1179.72030871 1667.88472334 1175.83179032 1673.75 1171.9375 C1674.56949127 1171.39450256 1675.38898254 1170.85150513 1676.23330688 1170.29205322 C1691.77262736 1159.98442143 1706.95820379 1149.23314682 1721.75 1137.875 C1722.6270459 1137.2039624 1723.5040918 1136.5329248 1724.40771484 1135.84155273 C1739.33949332 1124.39695927 1753.98150241 1112.64083701 1768.30419922 1100.44140625 C1770.00234846 1098.99800384 1771.70590193 1097.56118577 1773.41015625 1096.125 C1780.99422507 1089.70894857 1788.31035311 1083.05523665 1795.5390625 1076.2421875 C1798.35733182 1073.58924848 1801.22421866 1071.00032623 1804.125 1068.4375 C1810.34256221 1062.89210668 1816.15266511 1056.92982081 1822 1051 C1825.10699503 1052.38223399 1827.22475049 1053.97535888 1829.62287903 1056.37564087 C1830.32505051 1057.07361786 1831.02722198 1057.77159485 1831.75067139 1058.49072266 C1832.510755 1059.25642578 1833.27083862 1060.02212891 1834.05395508 1060.81103516 C1834.86259506 1061.61777679 1835.67123505 1062.42451843 1836.50437927 1063.25570679 C1839.18100986 1065.92862789 1841.85036152 1068.60869256 1844.51953125 1071.2890625 C1846.37998082 1073.15070444 1848.24080049 1075.01197659 1850.10197449 1076.87289429 C1854.00670432 1080.77856057 1857.90754477 1084.68807739 1861.8059082 1088.60009766 C1866.29684357 1093.10670877 1870.79293347 1097.60812267 1875.2920807 1102.1065346 C1879.63327073 1106.4471112 1883.97152291 1110.79060967 1888.30832481 1115.13557053 C1890.14684343 1116.97726118 1891.98595938 1118.81835573 1893.82569313 1120.65883255 C1896.40560153 1123.2409231 1898.9821819 1125.82628947 1901.55786133 1128.41259766 C1902.31187225 1129.1661554 1903.06588318 1129.91971313 1903.84274292 1130.69610596 C1907.1757995 1134.0491665 1910.42002495 1137.43127955 1913.50871277 1141.01168823 C1917.2459404 1145.34234754 1921.24521617 1149.37120207 1925.30273438 1153.40039062 C1926.10205887 1154.19825485 1926.90138336 1154.99611908 1927.72492981 1155.81816101 C1929.44797393 1157.53742151 1931.17217157 1159.25552659 1932.89741516 1160.97257996 C1935.63270251 1163.69501955 1938.36478018 1166.42064431 1941.09606934 1169.14709473 C1946.89457492 1174.93421233 1952.69696904 1180.71742073 1958.5 1186.5 C1965.22830696 1193.20459431 1971.95490873 1199.91087941 1978.67732239 1206.62138367 C1981.36010066 1209.29771162 1984.04588891 1211.97099327 1986.73181152 1214.64416504 C1988.38711187 1216.29583053 1990.04227067 1217.94763789 1991.69726562 1219.59960938 C1992.43721268 1220.33439011 1993.17715973 1221.06917084 1993.93952942 1221.82621765 C1997.86957749 1225.75586873 2001.59264643 1229.78900774 2005.22214508 1233.99629974 C2008.43100202 1237.61278577 2011.87316603 1240.99476757 2015.30273438 1244.40039062 C2016.10205887 1245.19825485 2016.90138336 1245.99611908 2017.72492981 1246.81816101 C2019.44797393 1248.53742151 2021.17217157 1250.25552659 2022.89741516 1251.97257996 C2025.63270251 1254.69501955 2028.36478018 1257.42064431 2031.09606934 1260.14709473 C2036.89457492 1265.93421233 2042.69696904 1271.71742073 2048.5 1277.5 C2055.22830696 1284.20459431 2061.95490873 1290.91087941 2068.67732239 1297.62138367 C2071.36010066 1300.29771162 2074.04588891 1302.97099327 2076.73181152 1305.64416504 C2078.38711187 1307.29583053 2080.04227067 1308.94763789 2081.69726562 1310.59960938 C2082.43721268 1311.33439011 2083.17715973 1312.06917084 2083.93952942 1312.82621765 C2087.86957749 1316.75586873 2091.59264643 1320.78900774 2095.22214508 1324.99629974 C2098.43100202 1328.61278577 2101.87316603 1331.99476757 2105.30273438 1335.40039062 C2106.10205887 1336.19825485 2106.90138336 1336.99611908 2107.72492981 1337.81816101 C2109.44797393 1339.53742151 2111.17217157 1341.25552659 2112.89741516 1342.97257996 C2115.63270251 1345.69501955 2118.36478018 1348.42064431 2121.09606934 1351.14709473 C2126.89457492 1356.93421233 2132.69696904 1362.71742073 2138.5 1368.5 C2145.22830696 1375.20459431 2151.95490873 1381.91087941 2158.67732239 1388.62138367 C2161.36010066 1391.29771162 2164.04588891 1393.97099327 2166.73181152 1396.64416504 C2168.38711187 1398.29583053 2170.04227067 1399.94763789 2171.69726562 1401.59960938 C2172.43721268 1402.33439011 2173.17715973 1403.06917084 2173.93952942 1403.82621765 C2177.94880448 1407.83508772 2181.76502601 1411.94670517 2185.46729469 1416.24047089 C2187.32735628 1418.37580147 2189.27740229 1420.3976804 2191.28295898 1422.39648438 C2192.04321884 1423.1566687 2192.8034787 1423.91685303 2193.58677673 1424.70007324 C2194.38185135 1425.48998657 2195.17692596 1426.2798999 2195.99609375 1427.09375 C2196.82963882 1427.92588013 2197.6631839 1428.75801025 2198.52198792 1429.61535645 C2201.15813262 1432.24594935 2203.79775105 1434.87302441 2206.4375 1437.5 C2208.23655979 1439.29403855 2210.0353902 1441.08830715 2211.83398438 1442.8828125 C2216.22000812 1447.25787125 2220.60888142 1451.63005512 2225 1456 C2223.22382954 1459.81951683 2220.81046747 1462.46366068 2217.8359375 1465.39453125 C2217.32503571 1465.90497482 2216.81413391 1466.4154184 2216.28775024 1466.94132996 C2215.20575408 1468.02031057 2214.12133401 1469.09686524 2213.03466797 1470.17114258 C2211.39631724 1471.79141795 2209.76593063 1473.41936932 2208.13671875 1475.04882812 C2203.18238076 1479.98620407 2198.18684381 1484.82997279 2192.86865234 1489.37866211 C2189.35037367 1492.43129977 2186.00214008 1495.66814562 2182.625 1498.875 C2174.80072487 1506.26496944 2167.00059104 1513.60552372 2158.625 1520.375 C2154.6117345 1523.61952732 2150.77586874 1526.98749324 2147 1530.5 C2142.44405527 1534.7339621 2137.74728841 1538.72931665 2132.90234375 1542.62890625 C2129.61037112 1545.31831054 2126.39992018 1548.09167086 2123.1875 1550.875 C2117.446041 1555.83199951 2111.55908505 1560.5614507 2105.5703125 1565.21484375 C2101.82702364 1568.12410884 2098.13202908 1571.0917294 2094.4375 1574.0625 C2088.33601482 1578.95613222 2082.17471562 1583.76549297 2075.95410156 1588.50683594 C2073.67079261 1590.25155328 2071.39418419 1592.00486568 2069.1171875 1593.7578125 C2059.59500078 1601.07182862 2049.99999222 1608.22602718 2040.1484375 1615.08984375 C2036.6065911 1617.56045278 2033.11581842 1620.09502333 2029.6315918 1622.64599609 C2018.91707112 1630.4789104 2007.89589853 1637.82077401 1996.82128906 1645.13232422 C1994.28832689 1646.80912939 1991.7629662 1648.49636279 1989.2421875 1650.19140625 C1914.26221433 1700.60068751 1834.04007416 1744.18233231 1751.12652588 1780.07867432 C1749.04596416 1780.98008585 1746.96691757 1781.88491009 1744.88818359 1782.79052734 C1674.22210798 1813.53320037 1601.23079168 1838.42362272 1527 1859 C1526.13193726 1859.24129639 1525.26387451 1859.48259277 1524.36950684 1859.73120117 C1420.50511291 1888.55899412 1313.48466506 1905.74029115 181 1739 C180.23115479 1738.62105591 179.46230957 1738.24211182 178.67016602 1737.85168457 C139.52273646 1718.5420334 139.52273646 1718.5420334 121.60205078 1708.46142578 C118.70853847 1706.83630243 115.80583752 1705.2283122 112.90234375 1703.62109375 C99.12864954 1695.97807073 85.50372166 1688.10994528 72 1680 C71.08041504 1679.44876465 70.16083008 1678.8975293 69.21337891 1678.32958984 C35.24271157 1657.92835935 2.26853665 1635.98827254 -30 1613 C-31.10263184 1612.21471924 -31.10263184 1612.21471924 -32.22753906 1611.41357422 C-42.66444562 1603.96543878 -52.92997089 1596.32204668 -63.07617188 1588.48291016 C-64.84269351 1587.12125376 -66.61493774 1585.76763852 -68.390625 1584.41796875 C-76.46843534 1578.26013057 -84.3480312 1571.87898923 -92.21386719 1565.45410156 C-94.56804276 1563.53755294 -96.93837788 1561.6417608 -99.3125 1559.75 C-108.76830305 1552.19794432 -118.03182517 1544.44795866 -127.19726562 1536.54833984 C-128.97485913 1535.02159309 -130.75952015 1533.50358292 -132.546875 1531.98828125 C-138.95463465 1526.54741231 -145.25081731 1521.01823787 -151.38696289 1515.27148438 C-154.1748945 1512.66334516 -157.00090497 1510.11365569 -159.8828125 1507.609375 C-164.00815373 1504.0167635 -168.01607827 1500.31070958 -172 1496.5625 C-173.0509082 1495.57636719 -173.0509082 1495.57636719 -174.12304688 1494.5703125 C-178.21285767 1490.7206304 -182.22911588 1486.81524124 -186.16235352 1482.80517578 C-187.84322637 1481.15400348 -189.56944182 1479.63770747 -191.37109375 1478.12109375 C-197.09402777 1473.14331286 -202.40355283 1467.74573441 -207.75463867 1462.37573242 C-209.55862085 1460.56639067 -211.36788665 1458.76245681 -213.17773438 1456.95898438 C-218.48037314 1451.65908311 -223.70561895 1446.35922448 -228.57006836 1440.64819336 C-230.75574647 1438.12889799 -233.11359747 1435.83025188 -235.5 1433.5 C-239.15961131 1429.88927427 -242.65439187 1426.20318826 -245.9921875 1422.29296875 C-248.7603822 1419.13162577 -251.63220658 1416.07088009 -254.5 1413 C-259.09101021 1408.07392659 -263.62172152 1403.11722843 -268 1398 C-268.88791299 1396.96605322 -269.77594505 1395.93220867 -270.6640625 1394.8984375 C-272.71901882 1392.50504964 -274.77050196 1390.10873322 -276.8203125 1387.7109375 C-278.88970698 1385.2917862 -280.96777307 1382.88061267 -283.0546875 1380.4765625 C-288.44485533 1374.25485363 -293.6797239 1367.95357014 -298.72387695 1361.44775391 C-301.74301571 1357.56455187 -304.8413268 1353.75967076 -307.9921875 1349.98266602 C-314.99680271 1341.5839378 -321.62551457 1332.95815011 -328.140625 1324.17578125 C-330.74422019 1320.66864014 -333.37981541 1317.18959134 -336.046875 1313.73046875 C-343.7054658 1303.79720319 -351.05141147 1293.74312496 -358.05859375 1283.33984375 C-360.61396237 1279.54766021 -363.25295504 1275.82634314 -365.9375 1272.125 C-372.56743145 1262.93880257 -378.77395694 1253.46235258 -385 1244 C-385.49145508 1243.25314941 -385.98291016 1242.50629883 -386.48925781 1241.73681641 C-416.07164286 1196.65840275 -442.95457792 1149.67577833 -466.83984375 1101.33984375 C-468.46998637 1098.04609973 -470.13800394 1094.77331148 -471.81640625 1091.50390625 C-480.55040482 1074.4015948 -488.40162153 1056.97094716 -496.08496094 1039.37695312 C-497.57589406 1035.96413594 -499.07970589 1032.55727545 -500.59060669 1029.15325928 C-513.2426197 1000.63078395 -524.31859506 971.47628244 -534.86425781 942.11669922 C-535.6181518 940.04786633 -536.39344278 937.98669927 -537.19042969 935.93408203 C-537.55813477 934.97743652 -537.92583984 934.02079102 -538.3046875 933.03515625 C-538.63194824 932.20508057 -538.95920898 931.37500488 -539.29638672 930.51977539 C-541.07179885 924.1616808 -539.34315869 919.81780185 -536.44921875 914.12890625 C-536.07985703 913.37921066 -535.7104953 912.62951508 -535.3299408 911.85710144 C-534.12649214 909.42009867 -532.90699982 906.99150423 -531.6875 904.5625 C-530.84620824 902.86489414 -530.00620951 901.16664691 -529.16748047 899.46777344 C-527.51597961 896.12424777 -525.8597518 892.78313886 -524.19970703 889.44384766 C-521.61731309 884.23955355 -519.10984009 879.00146095 -516.625 873.75 C-502.45731812 844.038765 -487.83011452 814.5564683 -473.11760712 785.11227798 C-471.88692215 782.64886409 -470.65692205 780.18510927 -469.42706299 777.72128296 C-453.9275852 746.67714303 -453.9275852 746.67714303 -446.21435547 732.18359375 C-443.78283793 727.61015058 -441.42303311 723.00108505 -439.0703125 718.38671875 C-438.66603531 717.59409637 -438.26175812 716.801474 -437.8452301 715.98483276 C-437.02494834 714.37601614 -436.20482531 712.76711858 -435.38485718 711.15814209 C-429.17502759 698.98035987 -422.92982888 686.83841283 -416.30517578 674.87963867 C-412.2266518 667.49278716 -408.3561697 660.00425398 -404.5 652.5 C-399.63777519 643.04258787 -394.68877672 633.64322729 -389.56298828 624.32519531 C-385.77538585 617.43841535 -382.05497625 610.51728928 -378.35400391 603.58374023 C-372.79138327 593.16457724 -367.16214484 582.78835795 -361.38867188 572.484375 C-359.14165883 568.4644023 -356.91002921 564.43590383 -354.67602539 560.40869141 C-342.600885 538.64619348 -330.43491662 516.93890712 -318.06037903 495.34510803 C-315.67540931 491.18239785 -313.29701448 487.01598207 -310.921875 482.84765625 C-302.98587286 468.92358953 -294.98493935 455.03959799 -286.88183594 441.21191406 C-285.18062155 438.30828452 -283.48123837 435.40359503 -281.782547 432.49848938 C-280.2846434 429.93715004 -278.78585373 427.37632998 -277.28683472 424.81564331 C-276.57188047 423.59418954 -275.8571275 422.37261793 -275.14260864 421.15090942 C-270.19208068 412.68827972 -265.17629233 404.26718 -260.12191772 395.86624146 C-258.30275559 392.8401766 -256.48951183 389.81057227 -254.67578125 386.78125 C-232.04611254 349.00361066 -208.99419494 311.4918638 -185.44287109 274.28125 C-183.98751567 271.98026167 -182.53440882 269.67786895 -181.08203125 267.375 C-169.17866012 248.5023589 -157.20832512 229.67713494 -145 211 C-144.35595215 210.01402832 -143.7119043 209.02805664 -143.04833984 208.01220703 C-137.89097315 200.11967019 -132.72064903 192.23570053 -127.54571533 184.35467529 C-125.85387921 181.77740596 -124.163005 179.19950693 -122.47216797 176.62158203 C-119.27193529 171.74313213 -116.06828187 166.86694097 -112.86279297 161.99194336 C-111.59540054 160.0635333 -110.32893683 158.13451251 -109.06347656 156.20483398 C-102.57932404 146.31917296 -96.03933171 136.50815617 -89.10717773 126.93041992 C-86.32400608 123.05990557 -83.67875617 119.10935981 -81.0625 115.125 C-65.82531281 92.11508582 -49.85507635 69.58622938 -34 47 C-33.4848584 46.26587891 -32.9697168 45.53175781 -32.43896484 44.77539062 C-25.19494833 34.45935299 -17.85778634 24.21341973 -10.45703125 14.00927734 C-9.11572226 12.15958348 -7.77631652 10.30852949 -6.4375 8.45703125 C-1.12793427 1.12793427 -1.12793427 1.12793427 0 0 Z " fill="#D762B6" transform="translate(2890,1424)"/>
<path d="M0 0 C1.03069611 0.2694342 1.03069611 0.2694342 2.08221436 0.54431152 C43.37121986 11.37490106 83.80796065 25.41663681 122.37744141 43.76074219 C124.87075072 44.93892484 127.3753107 46.08756719 129.88671875 47.2265625 C142.68406731 53.0741643 154.85441191 59.91018071 167 67 C167.89460938 67.52029785 168.78921875 68.0405957 169.7109375 68.57666016 C181.14908821 75.25245027 192.23827715 82.28067387 203 90 C203.76199707 90.54414551 204.52399414 91.08829102 205.30908203 91.64892578 C215.98235942 99.29922353 226.17778794 107.28653698 236 116 C237.41615551 117.22975555 238.83273869 118.45901902 240.25 119.6875 C241.50107118 120.79045282 242.75103976 121.89465736 244 123 C244.74121094 123.64839844 245.48242188 124.29679688 246.24609375 124.96484375 C253.46310577 131.35045599 260.23714636 138.1417456 267 145 C265.39822218 148.98087165 262.61769406 151.65493174 259.6171875 154.61328125 C259.08408966 155.14592087 258.55099182 155.67856049 258.0017395 156.2273407 C256.87266483 157.35339921 255.74116559 158.4770312 254.60742188 159.59838867 C252.89664129 161.29108744 251.19382508 162.99147489 249.4921875 164.69335938 C244.46638576 169.70229848 239.41358092 174.58958482 234.01611328 179.19995117 C229.47742121 183.25223703 225.27064026 187.66839207 221 192 C215.50166514 197.5768291 210.00607216 203.07773614 204.05078125 208.171875 C199.67208202 212.0751726 195.61656403 216.32437479 191.5 220.5 C186.16601368 225.9105141 180.83955219 231.21172831 175.06835938 236.15429688 C170.68533919 240.06549052 166.62254675 244.31830624 162.5 248.5 C157.16601368 253.9105141 151.83955219 259.21172831 146.06835938 264.15429688 C141.68533919 268.06549052 137.62254675 272.31830624 133.5 276.5 C123.48287532 286.66084239 123.48287532 286.66084239 119.03125 290.46875 C113.72942959 295.00933836 108.89693613 300.03315519 104 305 C98.50166514 310.5768291 93.00607216 316.07773614 87.05078125 321.171875 C82.67208202 325.0751726 78.61656403 329.32437479 74.5 333.5 C69.16601368 338.9105141 63.83955219 344.21172831 58.06835938 349.15429688 C53.68533919 353.06549052 49.62254675 357.31830624 45.5 361.5 C35.48287532 371.66084239 35.48287532 371.66084239 31.03125 375.46875 C25.72942959 380.00933836 20.89693613 385.03315519 16 390 C10.50166514 395.5768291 5.00607216 401.07773614 -0.94921875 406.171875 C-5.32791798 410.0751726 -9.38343597 414.32437479 -13.5 418.5 C-18.83398632 423.9105141 -24.16044781 429.21172831 -29.93164062 434.15429688 C-34.31466081 438.06549052 -38.37745325 442.31830624 -42.5 446.5 C-52.51712468 456.66084239 -52.51712468 456.66084239 -56.96875 460.46875 C-62.27057041 465.00933836 -67.10306387 470.03315519 -72 475 C-77.49833486 480.5768291 -82.99392784 486.07773614 -88.94921875 491.171875 C-93.32791798 495.0751726 -97.38343597 499.32437479 -101.5 503.5 C-106.95938838 509.03771533 -112.39718175 514.51278654 -118.32617188 519.55102539 C-120.67705221 521.58610048 -122.83618344 523.76856417 -125 526 C-128.93214301 524.41060574 -131.33020346 521.83657498 -134.25 518.8125 C-137.94368258 515.03651883 -141.69883454 511.42681318 -145.71875 508 C-148.19309966 505.83070715 -150.58961272 503.59085254 -152.98803711 501.33837891 C-158.63679839 496.03354729 -164.37041713 490.95761902 -170.421875 486.109375 C-173.0242629 483.98014854 -175.51575502 481.76550643 -178 479.5 C-186.94043454 471.37488811 -196.49329273 463.98226475 -206.01220703 456.55371094 C-208.14550243 454.8862715 -210.27393712 453.21273674 -212.40234375 451.5390625 C-220.80806883 444.94438175 -229.27721025 438.49541817 -238.03466797 432.375 C-240.28912682 430.79771898 -242.53707654 429.21135907 -244.78515625 427.625 C-274.84513763 406.44951541 -305.92172832 386.97454236 -338 369 C-338.85319824 368.52046875 -339.70639648 368.0409375 -340.58544922 367.546875 C-414.72970183 326.0784864 -494.66640749 294.19032543 -744 240 C-744.781474 239.90889954 -745.562948 239.81779907 -746.36810303 239.72393799 C-758.0243844 238.37613265 -769.69321187 237.23237146 -781.3838501 236.22717285 C-783.94718276 236.00458637 -786.50944623 235.77188497 -789.07177734 235.53808594 C-819.31410701 232.83903892 -849.57528373 232.70948897 -879.91411209 232.68992615 C-883.06952791 232.68754191 -886.22492902 232.682227 -889.38034058 232.67663574 C-916.64335705 232.641289 -943.79048925 233.25914322 -971 235 C-972.77283356 235.1132814 -972.77283356 235.1132814 -974.58148193 235.22885132 C-981.18578847 235.66541141 -987.78095048 236.18021092 -994.375 236.75 C-995.83093567 236.87355362 -995.83093567 236.87355362 -997.31628418 236.99960327 C-1037.68731723 240.45299492 -1077.94154785 245.57302204 -1117.80419922 252.87353516 C-1118.57380478 253.01354446 -1119.34341034 253.15355377 -1120.13633728 253.29780579 C-1121.57309609 253.56090304 -1123.00902744 253.82858246 -1124.44386292 254.10197449 C-1128.34801411 254.81832495 -1132.03270788 255.12706083 -1136 255 C-1132.69848311 252.25536996 -1129.39705716 249.94377075 -1125.66796875 247.8203125 C-1124.63486572 247.22863281 -1123.6017627 246.63695312 -1122.53735352 246.02734375 C-1121.43190186 245.39957031 -1120.3264502 244.77179688 -1119.1875 244.125 C-1117.42412404 243.11758666 -1115.66162364 242.10865406 -1113.8992157 241.09954834 C-1112.69628237 240.41081589 -1111.49308403 239.7225461 -1110.28962708 239.034729 C-1105.49660557 236.29302759 -1100.73068996 233.50676411 -1095.97045898 230.70849609 C-1067.89657709 214.21441285 -1039.21876352 198.76459705 -1010.3203125 183.76953125 C-1007.09747447 182.0962887 -1003.88218773 180.4110545 -1000.6796875 178.69921875 C-975.43295769 165.21730094 -949.72417234 152.55334157 -923.68164062 140.68701172 C-919.6777984 138.85780059 -915.69095571 136.99269441 -911.703125 135.12890625 C-872.75117255 116.96242008 -833.10223675 100.44989015 -793 85 C-792.17534241 84.68178284 -791.35068481 84.36356567 -790.5010376 84.03570557 C-702.6916968 50.18267956 -612.35379097 22.92326264 0 0 Z " fill="#E163B1" transform="translate(4808,420)"/>
</svg>
